<?xml version="1.0" standalone="no"?><!DOCTYPE svg PUBLIC "-//W3C//DTD SVG 1.1//EN" "http://www.w3.org/Graphics/SVG/1.1/DTD/svg11.dtd"><svg t="1760884246043" class="icon" viewBox="0 0 1024 1024" version="1.1" xmlns="http://www.w3.org/2000/svg" p-id="5730" xmlns:xlink="http://www.w3.org/1999/xlink" width="200" height="200"><path d="M322.56 819.2H220.16c-22.528 0-40.96-18.432-40.96-40.96V245.76c0-22.528 18.432-40.96 40.96-40.96h102.4c22.528 0 40.96 18.432 40.96 40.96v532.48c0 22.528-18.432 40.96-40.96 40.96zM220.16 245.76v532.48h102.4V245.76H220.16zM537.6 819.2H435.2c-22.528 0-40.96-18.432-40.96-40.96V245.76c0-22.528 18.432-40.96 40.96-40.96h102.4c22.528 0 40.96 18.432 40.96 40.96v532.48c0 22.528-18.432 40.96-40.96 40.96zM435.2 245.76v532.48h102.4V245.76H435.2z" p-id="5731"></path><path d="M694.784 813.568c-8.704 0-17.408-2.56-24.064-8.192-8.704-6.656-14.336-15.872-16.384-26.624l-74.752-501.248c-3.584-22.528 12.288-43.008 34.304-46.592l101.376-15.36c10.752-1.536 21.504 1.024 30.208 7.68 8.704 6.656 14.336 15.872 16.384 26.624l74.752 501.248c3.072 22.528-12.288 43.008-34.304 46.592l-101.376 15.36c-2.048 0.512-4.096 0.512-6.144 0.512zM620.032 271.36l74.752 501.248 101.376-15.36L721.408 256l-101.376 15.36zM250.88 414.72h40.96c5.632 0 10.24 4.608 10.24 10.24s-4.608 10.24-10.24 10.24h-40.96c-5.632 0-10.24-4.608-10.24-10.24s4.608-10.24 10.24-10.24zM465.92 414.72h40.96c5.632 0 10.24 4.608 10.24 10.24s-4.608 10.24-10.24 10.24h-40.96c-5.632 0-10.24-4.608-10.24-10.24s4.608-10.24 10.24-10.24zM250.88 501.76h40.96c5.632 0 10.24 4.608 10.24 10.24s-4.608 10.24-10.24 10.24h-40.96c-5.632 0-10.24-4.608-10.24-10.24s4.608-10.24 10.24-10.24zM465.92 501.76h40.96c5.632 0 10.24 4.608 10.24 10.24s-4.608 10.24-10.24 10.24h-40.96c-5.632 0-10.24-4.608-10.24-10.24s4.608-10.24 10.24-10.24z" p-id="5732"></path></svg>